<?xml version="1.0" encoding="utf-8"?>
<!-- Generator: Adobe Illustrator 18.1.1, SVG Export Plug-In . SVG Version: 6.00 Build 0)  -->
<svg version="1.1" id="Layer_1" xmlns="http://www.w3.org/2000/svg" xmlns:xlink="http://www.w3.org/1999/xlink" x="0px" y="0px"
	 viewBox="0 0 10 10" enable-background="new 0 0 10 10" xml:space="preserve">
<path fill="#FFFFFF" d="M7.2,0.6c-0.7,0-1.3,0.3-1.9,0.8c0,0,0,0,0,0h0L5,1.7L4.7,1.4c0,0,0,0,0,0h0C4.2,0.9,3.6,0.6,2.8,0.6
	s-1.4,0.3-2,0.8c-0.5,0.5-0.8,1.2-0.8,2c0,0.7,0.3,1.4,0.8,2L4.6,9C4.7,9.2,4.8,9.2,5,9.2c0.2,0,0.3-0.1,0.4-0.2l3.7-3.7
	c0.5-0.5,0.8-1.2,0.8-2c0-0.7-0.3-1.4-0.8-2C8.6,0.9,7.9,0.6,7.2,0.6C7.2,0.6,7.2,0.6,7.2,0.6z"/>
</svg>
