<?xml version="1.0" encoding="utf-8"?>
<!-- Generator: Adobe Illustrator 18.1.1, SVG Export Plug-In . SVG Version: 6.00 Build 0)  -->
<svg version="1.1" id="Layer_1" xmlns="http://www.w3.org/2000/svg" xmlns:xlink="http://www.w3.org/1999/xlink" x="0px" y="0px"
	 viewBox="0 0 32 32" enable-background="new 0 0 32 32" xml:space="preserve">
<path fill="#FFFFFF" d="M70.1-10.8c-0.2-0.6,6.3-6.5,2.5-11.2c-0.9-1.1-3.9,5.3-8.2,8.2c-2.4,1.6-7.9,5-7.9,6.9V5.2
	c0,2.3,8.7,4.7,15.4,4.7c2.4,0,6-15.2,6-17.7C77.9-10.2,70.4-10.2,70.1-10.8L70.1-10.8z M54.8-10.6c-1.2,0-5.3,0.7-5.3,5.6v8.6
	c0,4.8,4.2,5.4,5.3,5.4c1.2,0-1.8-1-1.8-4V-6.4C53-9.6,55.9-10.6,54.8-10.6z"/>
<path fill="#FFFFFF" d="M20.6,17.7c2.3-1.6,3.5-3.8,3.5-6.5c0-2.2-0.8-4.1-2.4-5.7S18.2,3.2,16,3.2c-2.2,0-4.1,0.8-5.7,2.4
	S8,9,8,11.2c0,2.8,1.2,4.9,3.5,6.5l1.4,1v3.7h6.5v-3.7L20.6,17.7z M16,0c3.1,0,5.7,1.1,7.9,3.3s3.3,4.8,3.3,7.9c0,3.9-1.6,7-4.8,9.2
	V24c0,0.5-0.2,0.8-0.5,1.1c-0.3,0.3-0.7,0.5-1.1,0.5h-9.6c-0.5,0-0.8-0.2-1.1-0.5c-0.3-0.3-0.5-0.7-0.5-1.1v-3.7
	c-3.2-2.2-4.8-5.3-4.8-9.2c0-3.1,1.1-5.7,3.3-7.9S12.9,0,16,0z M11.2,30.4v-1.6h9.6v1.6c0,0.5-0.2,0.8-0.5,1.1
	c-0.3,0.3-0.7,0.5-1.1,0.5h-6.5c-0.5,0-0.8-0.2-1.1-0.5C11.3,31.2,11.2,30.9,11.2,30.4z"/>
</svg>
