<?xml version="1.0" encoding="utf-8"?>
<!-- Generator: Adobe Illustrator 18.1.1, SVG Export Plug-In . SVG Version: 6.00 Build 0)  -->
<svg version="1.1" id="Layer_1" xmlns="http://www.w3.org/2000/svg" xmlns:xlink="http://www.w3.org/1999/xlink" x="0px" y="0px"
	 viewBox="0 0 32 32" enable-background="new 0 0 32 32" xml:space="preserve">
<path fill="#FFFFFF" d="M22.5,11.3c-0.2-0.6,6.3-6.5,2.5-11.2c-0.9-1.1-3.9,5.3-8.2,8.2c-2.4,1.6-7.9,5-7.9,6.9v12.2
	c0,2.3,8.7,4.7,15.4,4.7c2.4,0,6-15.2,6-17.7C30.2,11.9,22.7,11.9,22.5,11.3L22.5,11.3z M7.1,11.5c-1.2,0-5.3,0.7-5.3,5.6v8.6
	c0,4.8,4.2,5.4,5.3,5.4c1.2,0-1.8-1-1.8-4V15.7C5.3,12.5,8.3,11.5,7.1,11.5z"/>
</svg>
