<svg xmlns="http://www.w3.org/2000/svg" viewBox="0 0 32 32"><path fill="#FFF" d="M70.1-10.8c-.2-.6 6.3-6.5 2.5-11.2-.9-1.1-3.9 5.3-8.2 8.2-2.4 1.6-7.9 5-7.9 6.9V5.2c0 2.3 8.7 4.7 15.4 4.7 2.4 0 6-15.2 6-17.7 0-2.4-7.5-2.4-7.8-3zm-15.3.2c-1.2 0-5.3.7-5.3 5.6v8.6c0 4.8 4.2 5.4 5.3 5.4C56 9 53 8 53 5V-6.4c0-3.2 2.9-4.2 1.8-4.2zM20.6 17.7c2.3-1.6 3.5-3.8 3.5-6.5 0-2.2-.8-4.1-2.4-5.7S18.2 3.2 16 3.2s-4.1.8-5.7 2.4S8 9 8 11.2c0 2.8 1.2 4.9 3.5 6.5l1.4 1v3.7h6.5v-3.7l1.2-1zM16 0c3.1 0 5.7 1.1 7.9 3.3s3.3 4.8 3.3 7.9c0 3.9-1.6 7-4.8 9.2V24c0 .5-.2.8-.5 1.1-.3.3-.7.5-1.1.5h-9.6c-.5 0-.8-.2-1.1-.5-.3-.3-.5-.7-.5-1.1v-3.7c-3.2-2.2-4.8-5.3-4.8-9.2 0-3.1 1.1-5.7 3.3-7.9S12.9 0 16 0zm-4.8 30.4v-1.6h9.6v1.6c0 .5-.2.8-.5 1.1-.3.3-.7.5-1.1.5h-6.5c-.5 0-.8-.2-1.1-.5-.3-.3-.4-.6-.4-1.1z"/></svg>